{"title":"Ubah AVI ke MKV tanpa kode ulang","draft":false,"url":"/ubah-avi-ke-mkv-tanpa-kode-ulang-ummcpkha","votes":"4","answers_count":"1","categories":["Komputer"],"tags":["ffmpeg"],"snippet":"Complete name                            : Killing.Time.S01E01.HUN.WEB-DL.XviD-DART.aviFormat                                   : AVIFormat/Info                              : Audio Video InterleaveFile size                                : 359 MiBDuration                                 : 44 min 25 sOverall bit rate mode                    : VariableOverall bit rate...","body":"<pre><code>Complete name                            : Killing.Time.S01E01.HUN.WEB-DL.XviD-DART.avi\nFormat                                   : AVI\nFormat/Info                              : Audio Video Interleave\nFile size                                : 359 MiB\nDuration                                 : 44 min 25 s\nOverall bit rate mode                    : Variable\nOverall bit rate                         : 1 129 kb/s\nWriting application                      : Lavf56.3.100\n\nVideo\nID                                       : 0\nFormat                                   : MPEG-4 Visual\nFormat profile                           : Advanced Simple@L5\nFormat settings                          : BVOP2\nFormat settings, BVOP                    : 2\nFormat settings, QPel                    : No\nFormat settings, GMC                     : No warppoints\nFormat settings, Matrix                  : Default (H.263)\nMuxing mode                              : Packed bitstream\nCodec ID                                 : XVID\nCodec ID/Hint                            : XviD\nDuration                                 : 44 min 25 s\nBit rate                                 : 989 kb/s\nWidth                                    : 624 pixels\nHeight                                   : 352 pixels\nDisplay aspect ratio                     : 16:9\nFrame rate                               : 25.000 FPS\nColor space                              : YUV\nChroma subsampling                       : 4:2:0\nBit depth                                : 8 bits\nScan type                                : Progressive\nCompression mode                         : Lossy\nBits/(Pixel*Frame)                       : 0.180\nStream size                              : 314 MiB (88%)\nWriting library                          : XviD 1.2.1 (UTC 2008-12-04)\n\nAudio\nID                                       : 1\nFormat                                   : MPEG Audio\nFormat version                           : Version 1\nFormat profile                           : Layer 3\nFormat settings                          : Joint stereo / MS Stereo\nCodec ID                                 : 55\nCodec ID/Hint                            : MP3\nDuration                                 : 44 min 25 s\nBit rate mode                            : Variable\nBit rate                                 : 128 kb/s\nChannel(s)                               : 2 channels\nSampling rate                            : 48.0 kHz\nCompression mode                         : Lossy\nStream size                              : 40.6 MiB (11%)\nAlignment                                : Aligned on interleaves\nInterleave, duration                     : 24  ms (0.60 video frame)\nInterleave, preload duration             : 6  ms\nWriting library                          : LAME3.99.5\n</code></pre> <p> Saya ingin mengubah wadah file AVI ini ke MKV tanpa pengkodean. </p> <pre><code>ffmpeg -i Killing.Time.S01E01.HUN.WEB-DL.XviD-DART.avi -c:v copy -c:a copy Killing.Time.S01E01.HUN.WEB-DL.XviD-DART.mkv\n</code></pre> <p> Sudah mencoba perintah ini, tetapi tidak berhasil. :( </p> <pre><code>Stream mapping:\n  Stream #0:0 -&gt; #0:0 (copy)\n  Stream #0:1 -&gt; #0:1 (copy)\nPress [q] to stop, [?] for help\n[matroska @ 0x558ae70e69c0] Timestamps are unset in a packet for stream 0. This is deprecated and will stop working in the future. Fix your code to set the timestamps properly\n[matroska @ 0x558ae70e69c0] Can't write packet with unknown timestamp\nav_interleaved_write_frame(): Invalid argument\nframe=    1 fps=0.0 q=-1.0 Lsize=       1kB time=00:00:00.00 bitrate=7600.0kbits/s speed=9.09x    \nvideo:2kB audio:0kB subtitle:0kB other streams:0kB global headers:0kB muxing overhead: unknown\nConversion failed!\n</code></pre>","source":"https://superuser.com/questions/1424411/convert-avi-to-mkv-without-reencode","author":"<a href=\"https://superuser.com/users/1020470/syluccy\" target=\"_blank\" rel=\"nofollow noopener\"><span itemprop=\"name\">syluccy</span></a>","replies":[{"reply":"Anda menghilangkan informasi penting dari log. Tolong tunjukkan log lengkapnya.","author":"<a href=\"https://superuser.com/users/110524/llogan\" target=\"_blank\" rel=\"nofollow noopener\">llogan</a>"}],"answers":[{"answer":"<p> AVI tidak memiliki stempel waktu internal untuk diubah, gunakan -fflags + genpts agar ffmpeg membuatnya. </p> <pre><code>ffmpeg -fflags +genpts -i input.avi -c:v copy -c:a copy output.mkv\n</code></pre>","votes":"13","source":"https://superuser.com/a/1424470","author":"<a href=\"https://superuser.com/users/260848/szatmary\" target=\"_blank\" rel=\"nofollow noopener\"><span itemprop=\"name\">szatmary</span></a>","replies":[]}]}
